<svg xmlns="http://www.w3.org/2000/svg" xmlns:xlink="http://www.w3.org/1999/xlink" id="combined-logo" viewBox="0 0 201.9 89">    <defs>    <style>      .st0 {        fill: url(#linear-gradient2);      }      .st1 {        fill: url(#linear-gradient1);      }      .st2 {        fill: url(#linear-gradient3);      }      .st3 {        fill: url(#linear-gradient);      }      .st4 {        fill: #2c3b8e;      }      .st5 {        fill: #fff;      }      .st6 {        fill: #0071fe;      }    </style>    <linearGradient id="linear-gradient" x1="42.1" y1="69.1" x2="43.2" y2="17.2" gradientUnits="userSpaceOnUse">      <stop offset=".3" stop-color="#fff"></stop>      <stop offset=".4" stop-color="#fbfefe"></stop>      <stop offset=".5" stop-color="#f0fcfd"></stop>      <stop offset=".6" stop-color="#def9fa"></stop>      <stop offset=".7" stop-color="#c5f4f7"></stop>      <stop offset=".8" stop-color="#a5eef2"></stop>      <stop offset=".8" stop-color="#7de7ed"></stop>      <stop offset=".9" stop-color="#4edee6"></stop>      <stop offset="1" stop-color="#2cd8e2"></stop>    </linearGradient>    <linearGradient id="linear-gradient1" x1="42.1" y1="69.1" x2="43.1" y2="17.2" xlink:href="#linear-gradient"></linearGradient>    <linearGradient id="linear-gradient2" x1="42.1" y1="69.1" x2="43.2" y2="17.2" gradientUnits="userSpaceOnUse">      <stop offset=".3" stop-color="#0071fe"></stop>      <stop offset=".4" stop-color="#0174fd"></stop>      <stop offset=".6" stop-color="#067ffa"></stop>      <stop offset=".7" stop-color="#0d91f5"></stop>      <stop offset=".8" stop-color="#18aaee"></stop>      <stop offset=".9" stop-color="#26cae5"></stop>      <stop offset="1" stop-color="#2cd8e2"></stop>    </linearGradient>    <linearGradient id="linear-gradient3" x1="42.1" y1="69.1" x2="43.1" y2="17.2" xlink:href="#linear-gradient2"></linearGradient>  </defs>  <g id="logo-white">    <g>      <g>        <g>          <path class="st5" d="M28.4,69.8v-6.1h-.3c-11,0-19.8-8.9-19.8-19.8v-24.7c0-3.4-2.7-6.1-6.1-6.1h0v30.8c0,14.3,11.6,25.9,25.9,25.9h.3Z"></path>          <path class="st5" d="M30.5,71.8v-10.2h-2.3c-9.8,0-17.8-8-17.8-17.8v-24.7c0-4.5-3.6-8.1-8.1-8.1H.2v32.8c0,15.4,12.5,28,28,28h2.3ZM4.3,15.7c1.2.7,2,2,2,3.4v24.7c0,11.5,8.9,20.9,20.1,21.8v2c-12.3-.9-22.1-11.2-22.1-23.8V15.7Z"></path>        </g>        <g>          <path class="st3" d="M28.6,69.8c7.1,0,13.8-2.4,18.9-6.6,5.5-4.6,8.7-11.2,9-18.5.1-1.2,1.1-11.2-1.4-20.2-1-3.7-3.4-6.7-6.5-8.5-3.2-1.9-7.2.4-7.2,4.1h0c3.6,0,6.8,2.5,7.8,6,2.3,8.2,1.2,17.8,1.2,17.9v.2c-.6,12.8-11.5,19.5-21.9,19.5h-.6v6.1h.6Z"></path>          <path class="st1" d="M28.6,71.8c7.6,0,14.8-2.5,20.2-7.1,5.9-5,9.4-12,9.8-19.9.2-1.4,1.1-11.7-1.4-20.9-1.1-4.1-3.8-7.5-7.5-9.7s-4.7-1.3-6.8,0-2.8,2.6-3.2,4.5c-.2.8-.2,1.6,0,2.4l.2,1.1h1.7c2.7,0,5.1,1.9,5.8,4.5,2.2,7.7,1.1,17,1.1,17.1v.4c-.6,11.5-10.4,17.5-19.9,17.5h-2.6v10.2h2.6ZM30.1,65.7c5.4-.3,10.5-2.2,14.5-5.4,4.9-3.9,7.7-9.5,8-16h0c0-.9,1.1-10.5-1.2-18.8-1-3.5-3.8-6.2-7.2-7.2.2-.3.5-.5.8-.7.4-.2,1.5-.7,2.7,0,2.7,1.6,4.7,4.2,5.6,7.3,2.4,8.6,1.4,18.3,1.3,19.4h0c-.3,6.9-3.3,13-8.3,17.2-4.4,3.7-10.1,5.8-16.1,6.1v-2Z"></path>        </g>      </g>      <g>        <path class="st5" d="M32.3,86.9h-.4c-2.8,0-5-2.2-5.6-5V2h1.7c2.8,0,5,2.2,4.4,5v79.9Z"></path>        <path class="st5" d="M34.3,89h-2.5c-3.9,0-7.1-3.2-7.7-7.1V0h3.7c3.9,0,6.8,3,6.4,7.1v81.9ZM28.2,4.3v77.6c.6,1.3,1.4,2.4,2,2.8V7.1c.6-1.3-.2-2.4-2-2.8Z"></path>      </g>    </g>    <g>      <g>        <path class="st5" d="M92.2,25c-.6-1.1-1.4-1.9-2.4-2.5-.6-.4-1.3-.6-2.2-.8-.4,0-.9-.2-1.5-.2-.6,0-1.3,0-2.1,0h-5.7v24.4c1.9,0,3.5-1.6,3.5-3.5v-17.6h2.7c1.7,0,3,.3,3.8,1,.8.7,1.2,1.7,1.2,3.1s-.4,2.4-1.2,3c-.8.6-2.1,1-3.9,1h-1.4v1.6c0,.9.7,1.6,1.6,1.6h0c2.6,0,4.7-.7,6.2-2,1.5-1.3,2.3-3.1,2.3-5.4s-.3-2.5-.9-3.6Z"></path>        <path class="st5" d="M97.1,39.8h.8c0,1,.3,1.8.8,2.4s1.3.9,2.1.9,1.3-.3,1.8-.7c.5-.5.8-1.1.8-1.8s-.2-1.2-.5-1.6-.9-.8-1.7-1.2l-1.1-.4c-1.3-.5-2.1-.9-2.5-1.2-.7-.5-1.1-1.1-1.5-1.8-.3-.6-.5-1.4-.5-2.2,0-1.4.5-2.8,1.4-3.8s2.4-1.7,3.9-1.7,2.8.5,3.7,1.4c.5.5.9,1,1.1,1.7,0,0,0,0,0,0,.4,1-.4,2.2-1.5,2.2h-1.3c0-.3,0-.6-.2-.9-.1-.3-.3-.5-.5-.7-.4-.3-.8-.5-1.4-.6s-1.2.2-1.7.6-.6.9-.6,1.5c0,1,.9,1.9,2.7,2.5l1.2.5c1.4.6,2.4,1.3,3,2.1.6.8.9,2,.9,3.4s-.6,3-1.7,4.1c-1.1,1.1-2.5,1.6-4.2,1.6s-3.1-.6-4.1-1.7c-.5-.6-1-1.3-1.3-2.1h0c-.5-1.3.5-2.6,1.8-2.6Z"></path>        <path class="st5" d="M111.3,45.8v-15.1c0-1.8,1.5-3.3,3.3-3.3h0v15.1c0,1.8-1.5,3.3-3.3,3.3h0Z"></path>        <path class="st5" d="M135,34.7c-.7-1-1.6-1.7-2.8-2,.8-.5,1.5-1.1,1.9-1.9.4-.8.7-1.7.7-2.7,0-2.2-.7-3.8-2-5-1.4-1.1-3.3-1.7-5.9-1.7h-5.2v.3c0,1.7,1.3,3,3,3h2.4c1.4,0,2.5.3,3.2.8.7.6,1.1,1.4,1.1,2.5s-.4,2.2-1.2,2.7c-.8.6-2.1.8-3.9.8h-1.1v-5.6h-.7c-1.5,0-2.8,1.2-2.8,2.8v17h5.6c1.7,0,3-.1,4-.4s1.8-.7,2.5-1.3c.8-.7,1.3-1.5,1.8-2.5.4-1,.6-2.1.6-3.2s-.3-2.6-1-3.6ZM131.4,41.6c-.8.6-2,.9-3.6.9h-2.8v-5.2c0-1.5,1.2-2.8,2.8-2.8h0c1.6,0,2.7.4,3.5,1.1.8.7,1.2,1.8,1.2,3.1s-.4,2.2-1.2,2.8Z"></path>        <path class="st5" d="M158,32.7c-.5-1.2-1.2-2.2-2.1-3.1-.9-.9-2-1.7-3.1-2.1-1.1-.5-2.4-.7-3.7-.7s-2.5.3-3.6.8c-1.2.5-2.2,1.3-3.1,2.2-.9.9-1.5,2-2,3.1h0c-.6,1.6.5,3.2,2.2,3.2h.6c0-1.7.7-3.1,1.7-4.2,1.2-1.2,2.6-1.8,4.3-1.8s3.2.6,4.3,1.8c1.2,1.2,1.7,2.8,1.7,4.6s-.6,3.4-1.7,4.6c-1.2,1.2-2.6,1.9-4.3,1.9s-3.2-.6-4.4-1.8c-.5-.5-.9-1.1-1.2-1.7-.7-1.6-2.3-2.6-4-2.6h0c0,.5,0,1.1.2,1.6.1.6.3,1.2.5,1.8.5,1.2,1.2,2.2,2,3.1.9.9,1.9,1.7,3.1,2.2,1.1.5,2.4.7,3.7.7s2.5-.3,3.7-.8c.6-.3,1.1-.6,1.7-1,.5-.4,1-.8,1.5-1.3.8-.9,1.5-1.9,1.9-3.1.4-1.2.7-2.4.7-3.7s-.2-2.4-.7-3.6Z"></path>        <path class="st5" d="M164.4,45.8v-15.4h-.8c-1,0-1.8-.8-1.8-1.8v-1.2h2.6v-4.2c0-1,.8-1.8,1.8-1.8h1.5v6h.8c1,0,1.8.8,1.8,1.8v1.2h-2.6v12.1c0,1.8-1.5,3.3-3.3,3.3h0Z"></path>      </g>      <rect class="st5" x="111.2" y="21.4" rx="1.7" ry="1.7"></rect>      <path class="st5" d="M113.8,58.6h2.3c0-.9,0-1.8,0-2.6h-4.9c0,1.5,1.2,2.6,2.6,2.6Z"></path>      <g>        <path class="st5" d="M79.2,83.1c-1,.2-2-.3-2.4-1.2s0,0,0,0c-.3-.7-.6-1.2-.7-1.6,7.2-1,11.3-3.3,12.4-7,.2-.6.4-1.7.6-3.2v-.2h3.4c0,1-.1,1.8-.4,2.6,1.8,4.3,6.1,6.8,13,7.5-.3.6-.6,1.2-.8,1.6-.4.9-1.4,1.4-2.3,1.2-5.9-1.3-9.6-3.6-11.2-7-1.3,3.3-5.2,5.8-11.6,7.3ZM81,75c-.8-.8-1.7-1.7-2.7-2.5l.8-.7c.8-.7,2-.7,2.8,0s2.1,2,3.1,3l-.4.3c-1.1.9-2.7.9-3.7,0ZM78.5,66.6h0c0-.1,20.4-.1,20.4-.1v-2.6h-16.8c-1.4,0-2.5-1.1-2.5-2.5h0s19.4,0,19.4,0v-2.6h-17.6c-1.5,0-2.6-1.2-2.6-2.6h0s23.5,0,23.5,0v13.1h-21.2c-1.4,0-2.5-1.1-2.5-2.5ZM96.4,75l-.3-.3c1-.8,2-1.8,3.1-2.8s2.1-.8,2.9,0l.7.6h0c-1.1,1-2,1.8-2.8,2.5s-2.7.9-3.7-.1Z"></path>        <path class="st5" d="M119.6,75.2c.9-1.2.7-2.9-.4-3.9l-.5-.4c0,0,.2-.2.2-.4,1.3-1.4,2.2-2.4,2.8-3.1h0c-1.2-.9-2.9-.7-3.8.5s-.8,1-1.1,1.5l-1.2-1v-.2c1-1.5,2-3.3,3-5.3v-2.6h-3c0,0-6.4,0-6.4,0,0,1.6,1.3,2.9,2.9,2.9h3.1c-1.6,3.4-3.9,6.1-7,8.3h0c.5,1.6,2.5,2,3.7.9s.4-.3.5-.5v11.4c1.7,0,3.1-1.4,3.1-3.1v-8.5c1.3,1.2,2.6,2.4,4.1,3.6h0Z"></path>        <path class="st5" d="M120,57.1c0,1.6,1.3,2.9,2.9,2.9h1.3c0,2.7,0,4.5-.1,5.4,0,7.2-2.1,12.4-6.6,15.7l.9.9c.9.9,2.3.9,3.2,0,3.8-3.8,5.7-9.4,5.7-16.7v-2.3c0-1.3.1-2.3.1-3h5.5c0,3.5-.1,9.2-.4,17.1,0,1.8-.8,2.6-2.5,2.5h-3.5v.6c0,1.3,1,2.3,2.3,2.3s1.7,0,2.3,0c3,0,4.6-1.6,4.6-4.8.2-2.7.4-9.2.6-19.5v-1.1h-16.4Z"></path>        <path class="st5" d="M154.3,70.1h9.4c1.4,0,2.6,1.2,2.6,2.6v7.5c0,1.8-1.5,3.2-3.2,3.2h0v-1.3h-15.3v1.3h0c-1.7,0-3.1-1.4-3.1-3.1v-10.1s0,0,0,0c-1.1.5-2.4.2-3.1-.7s-.4-.6-.6-.8c3.4-1.2,5.5-2.6,6.3-4.3h-3.6c-1.3,0-2.4-1.1-2.4-2.4h0s6.6,0,6.6,0c.2-.8.2-1.7.2-2.6h-2.9c-.6.8-1.3,1.6-2.3,2.5-.2-.2-.4-.4-.6-.6-.2-.2-.6-.7-1.3-1.3,1.8-1.5,3-3.3,3.7-5.4h.8c1.1.2,1.8,1.4,1.2,2.4h0s7.1,0,7.1,0c.9,0,1.6.7,1.6,1.6v.8h-4.2c0,.3,0,.8-.1,1.3,0,.6,0,1.1-.1,1.3h3.7c.9,0,1.6.7,1.6,1.6v.8h-5.7c.9.6,2.2,1.4,4.1,2.5h0c.8.5,1,1.5.5,2.2l-.7,1ZM154.3,70.1c-1-.7-2.3-1.7-4-2.9-.5-.4-.9-.7-1.2-.8-.7,1.3-2.2,2.5-4.3,3.7h9.5ZM147.8,72.6v2.5h15.3v-2.5h-15.3ZM147.8,77.3v2.6h15.3v-2.6h-15.3ZM157.3,65.8v-9.2h9c1.2,0,2.2,1,2.2,2.2v9.3h-9c-1.2,0-2.2-1-2.2-2.2ZM160.2,59.2v6.3h5.4v-6.3h-5.4Z"></path>        <path class="st5" d="M185.8,63.6h0s-10.2.3-10.2.3c-.9,0-1.7-.5-2.1-1.2l-.5-1c.8-.4,1.5-1,2-1.7,1.6-1.6,3-3.5,4.3-5.7l1.7.6c.7.2,1,1.1.5,1.7h0c-1.8,2.2-4.3,4.8-4.3,4.8l6.7-.3-2-2.6,1-.6c.7-.4,1.5-.3,2.1.3,1.3,1.4,2.8,3.2,4.4,5.3l-.8.5c-.9.6-2.1.4-2.7-.4ZM174.6,80.4v-14.4h10.1c1.3,0,2.3,1,2.3,2.3v11.5c0,2-.9,3-3,3.1h-1.8c-.9,0-1.6-.7-1.6-1.6h0v-.9s.9,0,2.2,0,1.4-.3,1.4-1v-1.8h-6.9v5.5h0c-1.5,0-2.8-1.2-2.8-2.8ZM177.3,68.4v2.4h6.9v-2.4h-6.9ZM177.3,72.9v2.4h6.9v-2.4h-6.9ZM193.4,68c-2.1,0-3.8-1.7-3.8-3.8v-6c0-1.7,1.3-3,3-3h0v4.1c1.5-.5,3.1-1.2,4.8-2.1s3.2-.3,4.1,1h0c-2.9,1.4-5.9,2.8-8.9,4v1.4c0,1.2.5,1.8,1.8,1.7h2.4c1.2,0,1.9-.4,2-1.4.2-1,0-2.8,0-2.8,0,0,.8,0,1.2,0h0c1.2.4,1.4,1.1,1.4,2.5s0,1.3,0,1.6c-.3,1.9-1.8,2.9-4.1,2.9h-4ZM193.4,82.8c-2.6,0-3.8-1.2-3.8-3.7v-6.7c0-1.7,1.3-3,3-3h0v4c1.8-.7,3.5-1.4,4.9-2.2s3.3-.3,4.2,1.1h0c-2.2,1.1-5.2,2.5-9.1,4.1v2.2c0,1.1.6,1.6,1.8,1.6h2.5c1.2,0,1.8-.3,1.9-1.2.2-.9,0-3.2,0-3.2,0,0,1.1.2,1.7.5,0,0,0,0,0,0,.8.3,1,1.1,1,2s0,1.1,0,1.7h0c-.5,2-1.8,3-4,3h-4.1Z"></path>      </g>    </g>  </g>  <g id="logo">    <g>      <g>        <g>          <path class="st6" d="M28.4,69.8v-6.1h-.3c-11,0-19.8-8.9-19.8-19.8v-24.7c0-3.4-2.7-6.1-6.1-6.1h0v30.8c0,14.3,11.6,25.9,25.9,25.9h.3Z"></path>          <path class="st6" d="M30.5,71.8v-10.2h-2.3c-9.8,0-17.8-8-17.8-17.8v-24.7c0-4.5-3.6-8.1-8.1-8.1H.2v32.8c0,15.4,12.5,28,28,28h2.3ZM4.3,15.7c1.2.7,2,2,2,3.4v24.7c0,11.5,8.9,20.9,20.1,21.8v2c-12.3-.9-22.1-11.2-22.1-23.8V15.7Z"></path>        </g>        <g>          <path class="st0" d="M28.6,69.8c7.1,0,13.8-2.4,18.9-6.6,5.5-4.6,8.7-11.2,9-18.5.1-1.2,1.1-11.2-1.4-20.2-1-3.7-3.4-6.7-6.5-8.5-3.2-1.9-7.2.4-7.2,4.1h0c3.6,0,6.8,2.5,7.8,6,2.3,8.2,1.2,17.8,1.2,17.9v.2c-.6,12.8-11.5,19.5-21.9,19.5h-.6v6.1h.6Z"></path>          <path class="st2" d="M28.6,71.8c7.6,0,14.8-2.5,20.2-7.1,5.9-5,9.4-12,9.8-19.9.2-1.4,1.1-11.7-1.4-20.9-1.1-4.1-3.8-7.5-7.5-9.7s-4.7-1.3-6.8,0-2.8,2.6-3.2,4.5c-.2.8-.2,1.6,0,2.4l.2,1.1h1.7c2.7,0,5.1,1.9,5.8,4.5,2.2,7.7,1.1,17,1.1,17.1v.4c-.6,11.5-10.4,17.5-19.9,17.5h-2.6v10.2h2.6ZM30.1,65.7c5.4-.3,10.5-2.2,14.5-5.4,4.9-3.9,7.7-9.5,8-16h0c0-.9,1.1-10.5-1.2-18.8-1-3.5-3.8-6.2-7.2-7.2.2-.3.5-.5.8-.7.4-.2,1.5-.7,2.7,0,2.7,1.6,4.7,4.2,5.6,7.3,2.4,8.6,1.4,18.3,1.3,19.4h0c-.3,6.9-3.3,13-8.3,17.2-4.4,3.7-10.1,5.8-16.1,6.1v-2Z"></path>        </g>      </g>      <g>        <path class="st6" d="M32.3,86.9h-.4c-2.8,0-5-2.2-5.6-5V2h1.7c2.8,0,5,2.2,4.4,5v79.9Z"></path>        <path class="st6" d="M34.3,89h-2.5c-3.9,0-7.1-3.2-7.7-7.1V0h3.7c3.9,0,6.8,3,6.4,7.1v81.9ZM28.2,4.3v77.6c.6,1.3,1.4,2.4,2,2.8V7.1c.6-1.3-.2-2.4-2-2.8Z"></path>      </g>    </g>    <g>      <g>        <path class="st4" d="M92.2,25c-.6-1.1-1.4-1.9-2.4-2.5-.6-.4-1.3-.6-2.2-.8-.4,0-.9-.2-1.5-.2-.6,0-1.3,0-2.1,0h-5.7v24.4c1.9,0,3.5-1.6,3.5-3.5v-17.6h2.7c1.7,0,3,.3,3.8,1,.8.7,1.2,1.7,1.2,3.1s-.4,2.4-1.2,3c-.8.6-2.1,1-3.9,1h-1.4v1.6c0,.9.7,1.6,1.6,1.6h0c2.6,0,4.7-.7,6.2-2,1.5-1.3,2.3-3.1,2.3-5.4s-.3-2.5-.9-3.6Z"></path>        <path class="st4" d="M97.1,39.8h.8c0,1,.3,1.8.8,2.4s1.3.9,2.1.9,1.3-.3,1.8-.7c.5-.5.8-1.1.8-1.8s-.2-1.2-.5-1.6-.9-.8-1.7-1.2l-1.1-.4c-1.3-.5-2.1-.9-2.5-1.2-.7-.5-1.1-1.1-1.5-1.8-.3-.6-.5-1.4-.5-2.2,0-1.4.5-2.8,1.4-3.8s2.4-1.7,3.9-1.7,2.8.5,3.7,1.4c.5.5.9,1,1.1,1.7,0,0,0,0,0,0,.4,1-.4,2.2-1.5,2.2h-1.3c0-.3,0-.6-.2-.9-.1-.3-.3-.5-.5-.7-.4-.3-.8-.5-1.4-.6s-1.2.2-1.7.6-.6.9-.6,1.5c0,1,.9,1.9,2.7,2.5l1.2.5c1.4.6,2.4,1.3,3,2.1.6.8.9,2,.9,3.4s-.6,3-1.7,4.1c-1.1,1.1-2.5,1.6-4.2,1.6s-3.1-.6-4.1-1.7c-.5-.6-1-1.3-1.3-2.1h0c-.5-1.3.5-2.6,1.8-2.6Z"></path>        <path class="st4" d="M111.3,45.8v-15.1c0-1.8,1.5-3.3,3.3-3.3h0v15.1c0,1.8-1.5,3.3-3.3,3.3h0Z"></path>        <path class="st4" d="M135,34.7c-.7-1-1.6-1.7-2.8-2,.8-.5,1.5-1.1,1.9-1.9.4-.8.7-1.7.7-2.7,0-2.2-.7-3.8-2-5-1.4-1.1-3.3-1.7-5.9-1.7h-5.2v.3c0,1.7,1.3,3,3,3h2.4c1.4,0,2.5.3,3.2.8.7.6,1.1,1.4,1.1,2.5s-.4,2.2-1.2,2.7c-.8.6-2.1.8-3.9.8h-1.1v-5.6h-.7c-1.5,0-2.8,1.2-2.8,2.8v17h5.6c1.7,0,3-.1,4-.4s1.8-.7,2.5-1.3c.8-.7,1.3-1.5,1.8-2.5.4-1,.6-2.1.6-3.2s-.3-2.6-1-3.6ZM131.4,41.6c-.8.6-2,.9-3.6.9h-2.8v-5.2c0-1.5,1.2-2.8,2.8-2.8h0c1.6,0,2.7.4,3.5,1.1.8.7,1.2,1.8,1.2,3.1s-.4,2.2-1.2,2.8Z"></path>        <path class="st4" d="M158,32.7c-.5-1.2-1.2-2.2-2.1-3.1-.9-.9-2-1.7-3.1-2.1-1.1-.5-2.4-.7-3.7-.7s-2.5.3-3.6.8c-1.2.5-2.2,1.3-3.1,2.2-.9.9-1.5,2-2,3.1h0c-.6,1.6.5,3.2,2.2,3.2h.6c0-1.7.7-3.1,1.7-4.2,1.2-1.2,2.6-1.8,4.3-1.8s3.2.6,4.3,1.8c1.2,1.2,1.7,2.8,1.7,4.6s-.6,3.4-1.7,4.6c-1.2,1.2-2.6,1.9-4.3,1.9s-3.2-.6-4.4-1.8c-.5-.5-.9-1.1-1.2-1.7-.7-1.6-2.3-2.6-4-2.6h0c0,.5,0,1.1.2,1.6.1.6.3,1.2.5,1.8.5,1.2,1.2,2.2,2,3.1.9.9,1.9,1.7,3.1,2.2,1.1.5,2.4.7,3.7.7s2.5-.3,3.7-.8c.6-.3,1.1-.6,1.7-1,.5-.4,1-.8,1.5-1.3.8-.9,1.5-1.9,1.9-3.1.4-1.2.7-2.4.7-3.7s-.2-2.4-.7-3.6Z"></path>        <path class="st4" d="M164.4,45.8v-15.4h-.8c-1,0-1.8-.8-1.8-1.8v-1.2h2.6v-4.2c0-1,.8-1.8,1.8-1.8h1.5v6h.8c1,0,1.8.8,1.8,1.8v1.2h-2.6v12.1c0,1.8-1.5,3.3-3.3,3.3h0Z"></path>      </g>      <rect class="st4" x="111.2" y="21.4" rx="1.7" ry="1.7"></rect>      <path class="st4" d="M113.8,58.6h2.3c0-.9,0-1.8,0-2.6h-4.9c0,1.5,1.2,2.6,2.6,2.6Z"></path>      <g>        <path class="st4" d="M79.2,83.1c-1,.2-2-.3-2.4-1.2s0,0,0,0c-.3-.7-.6-1.2-.7-1.6,7.2-1,11.3-3.3,12.4-7,.2-.6.4-1.7.6-3.2v-.2h3.4c0,1-.1,1.8-.4,2.6,1.8,4.3,6.1,6.8,13,7.5-.3.6-.6,1.2-.8,1.6-.4.9-1.4,1.4-2.3,1.2-5.9-1.3-9.6-3.6-11.2-7-1.3,3.3-5.2,5.8-11.6,7.3ZM81,75c-.8-.8-1.7-1.7-2.7-2.5l.8-.7c.8-.7,2-.7,2.8,0s2.1,2,3.1,3l-.4.3c-1.1.9-2.7.9-3.7,0ZM78.5,66.6h0c0-.1,20.4-.1,20.4-.1v-2.6h-16.8c-1.4,0-2.5-1.1-2.5-2.5h0s19.4,0,19.4,0v-2.6h-17.6c-1.5,0-2.6-1.2-2.6-2.6h0s23.5,0,23.5,0v13.1h-21.2c-1.4,0-2.5-1.1-2.5-2.5ZM96.4,75l-.3-.3c1-.8,2-1.8,3.1-2.8s2.1-.8,2.9,0l.7.6h0c-1.1,1-2,1.8-2.8,2.5s-2.7.9-3.7-.1Z"></path>        <path class="st4" d="M119.6,75.2c.9-1.2.7-2.9-.4-3.9l-.5-.4c0,0,.2-.2.2-.4,1.3-1.4,2.2-2.4,2.8-3.1h0c-1.2-.9-2.9-.7-3.8.5s-.8,1-1.1,1.5l-1.2-1v-.2c1-1.5,2-3.3,3-5.3v-2.6h-3c0,0-6.4,0-6.4,0,0,1.6,1.3,2.9,2.9,2.9h3.1c-1.6,3.4-3.9,6.1-7,8.3h0c.5,1.6,2.5,2,3.7.9s.4-.3.5-.5v11.4c1.7,0,3.1-1.4,3.1-3.1v-8.5c1.3,1.2,2.6,2.4,4.1,3.6h0Z"></path>        <path class="st4" d="M120,57.1c0,1.6,1.3,2.9,2.9,2.9h1.3c0,2.7,0,4.5-.1,5.4,0,7.2-2.1,12.4-6.6,15.7l.9.9c.9.9,2.3.9,3.2,0,3.8-3.8,5.7-9.4,5.7-16.7v-2.3c0-1.3.1-2.3.1-3h5.5c0,3.5-.1,9.2-.4,17.1,0,1.8-.8,2.6-2.5,2.5h-3.5v.6c0,1.3,1,2.3,2.3,2.3s1.7,0,2.3,0c3,0,4.6-1.6,4.6-4.8.2-2.7.4-9.2.6-19.5v-1.1h-16.4Z"></path>        <path class="st4" d="M154.3,70.1h9.4c1.4,0,2.6,1.2,2.6,2.6v7.5c0,1.8-1.5,3.2-3.2,3.2h0v-1.3h-15.3v1.3h0c-1.7,0-3.1-1.4-3.1-3.1v-10.1s0,0,0,0c-1.1.5-2.4.2-3.1-.7s-.4-.6-.6-.8c3.4-1.2,5.5-2.6,6.3-4.3h-3.6c-1.3,0-2.4-1.1-2.4-2.4h0s6.6,0,6.6,0c.2-.8.2-1.7.2-2.6h-2.9c-.6.8-1.3,1.6-2.3,2.5-.2-.2-.4-.4-.6-.6-.2-.2-.6-.7-1.3-1.3,1.8-1.5,3-3.3,3.7-5.4h.8c1.1.2,1.8,1.4,1.2,2.4h0s7.1,0,7.1,0c.9,0,1.6.7,1.6,1.6v.8h-4.2c0,.3,0,.8-.1,1.3,0,.6,0,1.1-.1,1.3h3.7c.9,0,1.6.7,1.6,1.6v.8h-5.7c.9.6,2.2,1.4,4.1,2.5h0c.8.5,1,1.5.5,2.2l-.7,1ZM154.3,70.1c-1-.7-2.3-1.7-4-2.9-.5-.4-.9-.7-1.2-.8-.7,1.3-2.2,2.5-4.3,3.7h9.5ZM147.8,72.6v2.5h15.3v-2.5h-15.3ZM147.8,77.3v2.6h15.3v-2.6h-15.3ZM157.3,65.8v-9.2h9c1.2,0,2.2,1,2.2,2.2v9.3h-9c-1.2,0-2.2-1-2.2-2.2ZM160.2,59.2v6.3h5.4v-6.3h-5.4Z"></path>        <path class="st4" d="M185.8,63.6h0s-10.2.3-10.2.3c-.9,0-1.7-.5-2.1-1.2l-.5-1c.8-.4,1.5-1,2-1.7,1.6-1.6,3-3.5,4.3-5.7l1.7.6c.7.2,1,1.1.5,1.7h0c-1.8,2.2-4.3,4.8-4.3,4.8l6.7-.3-2-2.6,1-.6c.7-.4,1.5-.3,2.1.3,1.3,1.4,2.8,3.2,4.4,5.3l-.8.5c-.9.6-2.1.4-2.7-.4ZM174.6,80.4v-14.4h10.1c1.3,0,2.3,1,2.3,2.3v11.5c0,2-.9,3-3,3.1h-1.8c-.9,0-1.6-.7-1.6-1.6h0v-.9s.9,0,2.2,0,1.4-.3,1.4-1v-1.8h-6.9v5.5h0c-1.5,0-2.8-1.2-2.8-2.8ZM177.3,68.4v2.4h6.9v-2.4h-6.9ZM177.3,72.9v2.4h6.9v-2.4h-6.9ZM193.4,68c-2.1,0-3.8-1.7-3.8-3.8v-6c0-1.7,1.3-3,3-3h0v4.1c1.5-.5,3.1-1.2,4.8-2.1s3.2-.3,4.1,1h0c-2.9,1.4-5.9,2.8-8.9,4v1.4c0,1.2.5,1.8,1.8,1.7h2.4c1.2,0,1.9-.4,2-1.4.2-1,0-2.8,0-2.8,0,0,.8,0,1.2,0h0c1.2.4,1.4,1.1,1.4,2.5s0,1.3,0,1.6c-.3,1.9-1.8,2.9-4.1,2.9h-4ZM193.4,82.8c-2.6,0-3.8-1.2-3.8-3.7v-6.7c0-1.7,1.3-3,3-3h0v4c1.8-.7,3.5-1.4,4.9-2.2s3.3-.3,4.2,1.1h0c-2.2,1.1-5.2,2.5-9.1,4.1v2.2c0,1.1.6,1.6,1.8,1.6h2.5c1.2,0,1.8-.3,1.9-1.2.2-.9,0-3.2,0-3.2,0,0,1.1.2,1.7.5,0,0,0,0,0,0,.8.3,1,1.1,1,2s0,1.1,0,1.7h0c-.5,2-1.8,3-4,3h-4.1Z"></path>      </g>    </g>  </g></svg>